<?xml version="1.0" encoding="UTF-8"?>
<svg id="Layer_1" xmlns="http://www.w3.org/2000/svg" viewBox="0 0 210.61 283.46">
  <defs>
    <style>
      .cls-1 {
        fill: #fff;
      }
    </style>
  </defs>
  <circle class="cls-1" cx="105.3" cy="141.73" r="19.52"/>
  <path class="cls-1" d="M148.19,61.1c-9.23,0-16.94,6.41-18.98,15.02h-47.82c-2.04-8.61-9.75-15.02-18.98-15.02-10.78,0-19.53,8.74-19.53,19.52s8.74,19.52,19.53,19.52c9.23,0,16.94-6.41,18.98-15.02h47.82c2.04,8.61,9.75,15.02,18.98,15.02,10.78,0,19.53-8.74,19.53-19.52s-8.74-19.52-19.53-19.52Z"/>
  <path class="cls-1" d="M148.19,183.31c-9.23,0-16.94,6.41-18.98,15.02h-47.82c-2.04-8.61-9.75-15.02-18.98-15.02-10.78,0-19.53,8.74-19.53,19.52s8.74,19.52,19.53,19.52c9.23,0,16.94-6.41,18.98-15.02h47.82c2.04,8.61,9.75,15.02,18.98,15.02,10.78,0,19.53-8.74,19.53-19.52s-8.74-19.52-19.53-19.52Z"/>
  <path class="cls-1" d="M191.08,0c-9.23,0-16.94,6.41-18.98,15.02H38.51C36.47,6.41,28.75,0,19.53,0,8.74,0,0,8.74,0,19.52s8.74,19.52,19.53,19.52c9.23,0,16.94-6.41,18.98-15.02h133.6c2.04,8.61,9.75,15.02,18.98,15.02,10.78,0,19.53-8.74,19.53-19.52S201.87,0,191.08,0Z"/>
  <path class="cls-1" d="M191.08,244.41c-9.23,0-16.94,6.41-18.98,15.02H38.51c-2.04-8.61-9.75-15.02-18.98-15.02C8.74,244.41,0,253.16,0,263.94s8.74,19.52,19.53,19.52c9.23,0,16.94-6.41,18.98-15.02h133.6c2.04,8.61,9.75,15.02,18.98,15.02,10.78,0,19.53-8.74,19.53-19.52s-8.74-19.52-19.53-19.52Z"/>
</svg>