<?xml version="1.0" encoding="UTF-8"?>
<svg id="Layer_1" xmlns="http://www.w3.org/2000/svg" viewBox="0 0 1617.5 283.46">
  <defs>
    <style>
      .cls-1 {
        fill: #fff;
      }
    </style>
  </defs>
  <g>
    <circle class="cls-1" cx="105.3" cy="141.73" r="19.52"/>
    <path class="cls-1" d="M148.19,61.1c-9.22,0-16.91,6.42-18.95,15.02h-47.88c-2.04-8.6-9.73-15.02-18.95-15.02-10.78,0-19.53,8.74-19.53,19.53s8.74,19.52,19.53,19.52c9.22,0,16.91-6.42,18.95-15.02h47.88c2.04,8.6,9.73,15.02,18.95,15.02,10.78,0,19.52-8.74,19.52-19.52s-8.74-19.53-19.52-19.53Z"/>
    <path class="cls-1" d="M62.41,183.31c-10.78,0-19.53,8.74-19.53,19.52s8.74,19.53,19.53,19.53c9.22,0,16.91-6.42,18.95-15.02h47.88c2.04,8.6,9.73,15.02,18.95,15.02,10.78,0,19.52-8.74,19.52-19.53s-8.74-19.52-19.52-19.52c-9.22,0-16.91,6.42-18.95,15.02h-47.88c-2.04-8.6-9.73-15.02-18.95-15.02Z"/>
    <path class="cls-1" d="M19.53,39.05c9.22,0,16.91-6.42,18.95-15.02h133.66c2.04,8.6,9.73,15.02,18.95,15.02,10.78,0,19.52-8.74,19.52-19.52S201.87,0,191.08,0c-9.22,0-16.91,6.42-18.95,15.02H38.48C36.43,6.42,28.75,0,19.53,0,8.74,0,0,8.74,0,19.53s8.74,19.52,19.53,19.52Z"/>
    <path class="cls-1" d="M191.08,244.41c-9.22,0-16.91,6.42-18.95,15.02H38.48c-2.04-8.6-9.73-15.02-18.95-15.02C8.74,244.41,0,253.16,0,263.94s8.74,19.53,19.53,19.53c9.22,0,16.91-6.42,18.95-15.02h133.66c2.04,8.6,9.73,15.02,18.95,15.02,10.78,0,19.52-8.74,19.52-19.53s-8.74-19.52-19.52-19.52Z"/>
  </g>
  <g>
    <path class="cls-1" d="M296.39,61.06h58.14c29.98,0,48.83,19.3,48.83,45.88,0,22.71-13.4,37.48-36.57,42.93l59.96,72.45h-32.71l-59.05-70.86h-12.04v70.86h-26.57V61.06ZM351.35,128.29c15.67,0,25.44-7.5,25.44-21.35s-9.77-21.35-25.44-21.35h-28.39v42.7h28.39Z"/>
    <path class="cls-1" d="M480.85,224.59c-33.84,0-58.14-24.98-58.14-59.05s23.39-59.05,58.36-59.05,59.05,26.57,56.78,65.18h-90.39c.91,17.26,14.08,30.89,34.3,30.89,12.49,0,23.39-5,28.61-15.9h26.12c-6.36,21.35-26.8,37.93-55.64,37.93ZM448.37,153.95h62.68c-3.86-18.4-16.81-26.57-30.66-26.57-15.67,0-28.61,9.08-32.02,26.57Z"/>
    <path class="cls-1" d="M626.68,148.73l-24.75,73.59h-23.62l-38.16-113.56h26.35l24.52,78.13,26.12-78.13h19.08l25.89,78.13,24.76-78.13h26.57l-38.16,113.56h-23.62l-24.98-73.59Z"/>
    <path class="cls-1" d="M738.78,84c-9.09,0-16.81-7.5-16.81-16.81s7.72-16.58,16.81-16.58,16.58,7.49,16.58,16.58-7.27,16.81-16.58,16.81ZM726.28,108.76h24.98v113.56h-24.98v-113.56Z"/>
    <path class="cls-1" d="M777.72,108.76h24.98v15.44c6.82-11.36,19.76-17.71,34.53-17.71,26.34,0,43.38,18.62,43.38,47.47v68.36h-24.98v-64.28c0-17.94-9.09-28.84-23.62-28.84-16.58,0-29.3,12.95-29.3,37.25v55.87h-24.98v-113.56Z"/>
    <path class="cls-1" d="M953.43,106.48c16.35,0,29.98,8.4,36.34,17.49V51.98h24.98v170.34h-24.98v-15.22c-6.36,9.08-19.98,17.49-36.34,17.49-31.11,0-54.73-26.57-54.73-59.05s23.62-59.05,54.73-59.05ZM957.98,129.19c-20.21,0-33.84,15.9-33.84,36.34s13.63,36.34,33.84,36.34,33.84-15.9,33.84-36.34-13.63-36.34-33.84-36.34Z"/>
    <path class="cls-1" d="M1053.71,84c-9.09,0-16.81-7.5-16.81-16.81s7.72-16.58,16.81-16.58,16.58,7.49,16.58,16.58-7.27,16.81-16.58,16.81ZM1041.21,108.76h24.98v113.56h-24.98v-113.56Z"/>
    <path class="cls-1" d="M1092.66,108.76h24.98v15.44c6.82-11.36,19.76-17.71,34.52-17.71,26.35,0,43.39,18.62,43.39,47.47v68.36h-24.99v-64.28c0-17.94-9.08-28.84-23.61-28.84-16.58,0-29.3,12.95-29.3,37.25v55.87h-24.98v-113.56Z"/>
    <path class="cls-1" d="M1242.34,231.17c4.54,13.4,15.45,19.53,31.34,19.53,17.03,0,30.89-11.35,30.89-33.39v-13.4c-6.82,9.99-20.67,17.71-36.34,17.71-30.66,0-54.51-25.44-54.51-57.69s23.85-57.46,54.51-57.46c15.67,0,29.52,7.5,36.34,17.49v-15.22h24.98v106.52c0,39.52-26.12,56.78-56.55,56.78s-52.24-17.26-55.19-40.88h24.53ZM1272.77,129.19c-19.3,0-33.84,14.54-33.84,34.75s14.54,34.75,33.84,34.75,33.84-14.54,33.84-34.75-14.54-34.75-33.84-34.75Z"/>
    <path class="cls-1" d="M1555.95,140.78l58.6-79.72h-31.35l-43.38,58.6-43.61-58.6h-31.34l58.59,79.49-49.89,66.29-47.15-56.98c23.16-5.45,36.57-20.21,36.57-42.93,0-26.57-18.85-45.88-48.83-45.88h-58.14v161.25h26.57v-70.86h12.04l59.05,70.86h40.27l45.88-60.41,45.88,60.41h31.8l-61.55-81.54ZM1382.59,128.29v-42.7h28.39c15.68,0,25.44,7.5,25.44,21.35s-9.77,21.35-25.44,21.35h-28.39Z"/>
  </g>
</svg>